<svg xmlns="http://www.w3.org/2000/svg" version="1.1" xmlns:xlink="http://www.w3.org/1999/xlink" xmlns:svgjs="http://svgjs.dev/svgjs" width="2000" height="1399" viewBox="0 0 2000 1399"><g transform="matrix(1,0,0,1,-1.2801671983324923,0.5674426806061774)"><svg viewBox="0 0 353 247" data-background-color="#ffffff" preserveAspectRatio="xMidYMid meet" height="1399" width="2000" xmlns="http://www.w3.org/2000/svg" xmlns:xlink="http://www.w3.org/1999/xlink"><g id="tight-bounds" transform="matrix(1,0,0,1,0.2262122198783061,-0.09997365579206985)"><svg viewBox="0 0 352.54783826961597 247.2" height="247.2" width="352.54783826961597"><g><svg viewBox="0 0 352.54783826961597 247.2" height="247.2" width="352.54783826961597"><g><svg viewBox="0 0 352.54783826961597 247.2" height="247.2" width="352.54783826961597"><g id="textblocktransform"><svg viewBox="0 0 352.54783826961597 247.2" height="247.2" width="352.54783826961597" id="textblock"><g><svg viewBox="0 0 352.54783826961597 247.2" height="247.2" width="352.54783826961597"><path d="M351.722 53.02C350.065 27.36 345.341 20.227 345.341 20.227 330.839-6.202 312.74-0.506 296.481 3.292 267.775 3.446 239.185 9.091 210.545 12.119 150.431 12.581 89.803 4.986 29.987 23.717 24.369 29.464-5.829 24.846 0.999 56.304 2.789 69.39 9.32 83.913 9.121 95.922 10.016 98.026 11.259 93.202 11.789 96.23 13.645 104.39 16.678 100.541 19.165 105.365 15.701 118.246 18.187 128.971 20.557 140.21 16.38 143.135 11.027 141.749 8.623 151.449 8.375 158.479 7.032 157.145 5.557 156.837 4.48 156.632 2.309 157.402 2.673 159.608 3.916 167.152-1.42 171.514 1.928 178.904-0.376 186.91 3.519 193.838 2.988 202.511 2.922 204.255 3.287 205.744 3.867 206.154 6.436 208.361 2.69 212.672 3.088 217.342 29.44 249.262 58.031 227.195 85.03 241.872 92.041 231.608 86.77 245.516 89.571 243.36 91.759 240.846 93.35 251.263 95.819 245.362 96.201 243.668 95.621 239.665 96.98 240.435 97.692 240.846 98.322 240.743 98.422 238.382 98.571 234.841 97.261 237.048 96.913 235.201 100.676 225.861 99.747 248.081 103.278 247.158 103.112 244.438 102.084 240.538 104.189 241.051 106.278 237.151 106.344 233.918 108.2 242.693 108.267 244.592 108.598 245.926 109.128 246.85 114.929 237.305 120.697 250.237 126.78 245.926 130.509 241.205 134.089 248.492 137.868 246.696 139.194 245.259 140.536 242.693 141.812 247.004 157.442 247.928 174.099 244.079 188.916 247.158 228.511 241.41 270.825 249.518 312.575 241.923 322.42 238.998 332.646 234.841 342.242 231.506 342.242 231.506 350.015 222.371 350.015 181.316S351.673 145.393 351.921 112.703C352.17 80.013 353.33 78.679 351.673 53.02Z" opacity="1" fill="#551e19" data-fill-palette-color="tertiary"></path><g transform="matrix(1,0,0,1,55.76832,26.230666666666668)"><svg width="241.01119826961596" viewBox="0.99444455556 -35.25 43.99646425596 35.55" height="194.73866666666666" data-palette-color="#ffffff"><path d="M24.7-13.25L32.85-34 32.85-35 35.85-35Q37.3-35 39.3-35.1 41.3-35.2 42.7-35.25L42.7-35.25Q42.85-34.3 42.6-33.5L42.6-33.5Q41.5-33.3 40.5-33.1 39.5-32.9 38.6-32.5L38.6-32.5 41.1-2.5 44.95-1.5Q45.1-0.55 44.7 0.25L44.7 0.25Q43.35 0.15 41.68 0.08 40 0 38.6 0L38.6 0Q37.2 0 35.18 0.08 33.15 0.15 31.75 0.25L31.75 0.25Q31.6-0.7 31.85-1.5L31.85-1.5Q32.95-1.7 34-1.85 35.05-2 35.85-2.5L35.85-2.5 33.75-24.4Q33.7-25.1 33.68-25.8 33.65-26.5 33.65-27.2L33.65-27.2Q33.65-27.75 33.65-28.35 33.65-28.95 33.7-29.5L33.7-29.5 33.55-29.5Q33.2-28.25 32.83-26.98 32.45-25.7 31.95-24.4L31.95-24.4 22.9-1.55Q21.95-1 21.1-1.05L21.1-1.05 11.25-24.4Q10.8-25.55 10.4-26.83 10-28.1 9.6-29.5L9.6-29.5 9.45-29.5 9.3-24.35 8.05-2.45 11.9-1.45Q12.05-0.5 11.65 0.3L11.65 0.3Q10.3 0.2 9.05 0.1 7.8 0 6.4 0L6.4 0Q5 0 3.73 0.08 2.45 0.15 1.05 0.25L1.05 0.25Q0.9-0.7 1.15-1.5L1.15-1.5Q2.15-1.65 3.13-1.9 4.1-2.15 5.05-2.5L5.05-2.5 7.05-32.5 3.2-33.5Q3.05-34.45 3.45-35.25L3.45-35.25Q4.8-35.2 6.48-35.1 8.15-35 9.55-35L9.55-35 12.8-35 12.8-34 20.95-13.25Q21.6-11.7 22-10.3 22.4-8.9 22.75-7.35L22.75-7.35 22.85-7.35Q23.25-8.95 23.7-10.38 24.15-11.8 24.7-13.25L24.7-13.25Z" opacity="1" transform="matrix(1,0,0,1,0,0)" fill="#ffffff" class="wordmark-text-0" data-fill-palette-color="quaternary" id="text-0"></path></svg></g></svg></g></svg></g></svg></g><g></g></svg></g><defs></defs></svg><rect width="352.54783826961597" height="247.2" fill="none" stroke="none" visibility="hidden"></rect></g></svg></g></svg>